<svg xmlns="http://www.w3.org/2000/svg" viewBox="0 0 24 24"><defs><style>.a{fill:#88171a}.b{fill:#231f20}</style></defs><g fill="none"><g mask="url(#mask0_22_1265)" transform="translate(.01 .002) scale(.27754)"><path fill="#ffb441" fill-rule="evenodd" d="M0 14.412C0 6.454 6.445 0 14.396 0h57.585c7.95 0 14.396 6.454 14.396 14.412v57.65c0 7.96-6.445 14.412-14.396 14.412H14.396C6.446 86.474 0 80.02 0 72.062z" clip-rule="evenodd"/></g><path fill="#000" fill-rule="evenodd" stroke-width=".278" d="M20.66 2.837H3.335a.568.568 0 1 0 0 1.137h8.127a.566.566 0 0 0-.033.19v1.802a6.061 6.061 0 0 0-5.488 6.037 6.06 6.06 0 0 0 5.488 6.036V20.6a.569.569 0 0 0 1.137 0v-2.561a6.061 6.061 0 0 0 5.488-6.036 6.06 6.06 0 0 0-5.488-6.037V4.163a.566.566 0 0 0-.033-.19h8.127a.568.568 0 1 0 0-1.136zM7.11 12.003a4.89 4.89 0 0 1 4.32-4.86v9.72a4.891 4.891 0 0 1-4.32-4.86zm9.776 0a4.89 4.89 0 0 1-4.32 4.859V7.143a4.891 4.891 0 0 1 4.32 4.86z" clip-rule="evenodd"/></g></svg>